<?xml version="1.0" standalone="no"?>
<!DOCTYPE svg PUBLIC "-//W3C//DTD SVG 20010904//EN"
 "http://www.w3.org/TR/2001/REC-SVG-20010904/DTD/svg10.dtd">
<svg version="1.0" xmlns="http://www.w3.org/2000/svg"
 width="256.000000pt" height="256.000000pt" viewBox="0 0 256.000000 256.000000"
 preserveAspectRatio="xMidYMid meet">

<g transform="translate(0.000000,256.000000) scale(0.100000,-0.100000)"
fill="#000000" stroke="none">
<path d="M0 2120 c0 -5 5 -10 10 -10 6 0 10 -4 10 -10 0 -17 34 -90 42 -90 5
0 8 -6 8 -13 0 -7 11 -24 25 -39 14 -15 25 -30 25 -34 0 -7 181 -185 246 -241
20 -18 44 -33 53 -33 13 0 13 -2 3 -9 -14 -9 -62 8 -62 22 0 4 -9 7 -20 7 -11
0 -20 4 -20 9 0 5 -11 12 -25 15 -14 4 -25 11 -25 16 0 6 -7 10 -15 10 -8 0
-15 5 -15 10 0 6 -7 10 -15 10 -8 0 -25 11 -39 25 -14 14 -28 25 -31 25 -8 0
-26 18 -49 50 l-18 25 6 -35 c3 -18 10 -36 14 -40 9 -6 29 -38 41 -65 16 -34
175 -174 199 -175 6 0 12 -4 12 -10 0 -5 -16 -10 -35 -10 -19 0 -35 3 -35 8 0
13 -61 35 -71 25 -11 -11 55 -83 76 -83 8 0 15 -4 15 -10 0 -5 6 -10 13 -10 6
0 18 -4 26 -9 11 -7 10 -13 -8 -32 -29 -32 -27 -39 15 -39 36 0 36 -1 30 -32
-4 -18 -11 -34 -16 -36 -16 -6 -12 -22 5 -22 8 0 15 5 15 10 0 6 5 10 10 10 6
0 10 -16 10 -35 0 -33 1 -34 21 -23 17 10 23 10 26 1 6 -15 33 -17 33 -3 0 14
37 12 43 -2 3 -10 9 -10 26 0 11 6 32 12 46 12 l25 0 0 -105 c0 -73 -4 -105
-12 -105 -6 0 -8 -3 -4 -7 4 -4 25 -6 46 -4 24 1 40 -2 40 -8 0 -6 5 -11 10
-11 6 0 10 9 10 20 0 11 -4 20 -10 20 -6 0 -10 57 -10 150 0 83 3 150 8 150 8
0 42 -36 42 -45 0 -5 27 -38 75 -89 43 -46 109 -127 114 -138 6 -17 60 -68 71
-68 6 0 10 63 10 180 0 113 4 180 10 180 6 0 10 23 10 50 0 28 5 50 10 50 6 0
10 7 10 15 0 12 -14 15 -62 15 -44 0 -58 -3 -48 -10 12 -7 16 -40 18 -170 l3
-161 -35 33 c-20 18 -36 38 -36 43 0 6 -18 29 -40 50 -22 21 -40 43 -40 47 0
5 -20 29 -45 55 -25 25 -45 50 -45 54 0 23 -53 59 -86 59 -24 0 -43 8 -59 25
-21 21 -25 33 -25 89 l0 64 -32 7 c-18 4 -35 10 -38 14 -3 3 -23 15 -45 26
-45 23 -122 78 -146 106 -9 11 -21 19 -27 19 -17 0 -239 224 -246 248 -7 22
-26 31 -26 12z"/>
<path d="M2535 2109 c-7 -22 -181 -199 -196 -199 -5 0 -31 -21 -58 -47 -58
-57 -148 -123 -167 -123 -8 0 -14 -3 -14 -8 0 -8 -73 -42 -90 -42 -6 0 -10
-29 -10 -65 0 -90 -22 -113 -111 -117 -59 -3 -62 -4 -46 -20 15 -14 17 -41 17
-192 0 -97 -4 -176 -9 -176 -5 0 -12 -11 -15 -24 -12 -47 -123 -47 -167 0 -23
25 -24 30 -24 201 0 132 3 177 13 181 6 2 12 9 12 17 0 9 -19 13 -65 13 l-65
0 6 -37 c4 -20 11 -37 15 -39 5 -2 9 -78 9 -169 l0 -165 29 -29 c16 -16 37
-29 45 -29 9 0 16 -4 16 -10 0 -6 31 -10 74 -10 41 0 78 5 81 10 3 6 14 10 24
10 10 0 30 13 44 30 22 25 27 39 27 84 0 30 5 58 10 61 6 3 10 15 10 26 0 15
7 19 35 19 19 0 35 -5 35 -11 0 -6 7 -3 16 5 19 20 29 20 48 1 18 -18 33 -19
39 -2 3 9 9 9 26 -1 19 -11 21 -10 21 11 0 13 -5 28 -12 35 -9 9 -7 12 10 12
12 0 22 -4 22 -10 0 -5 7 -10 15 -10 18 0 18 8 0 40 -23 40 -18 50 20 50 40 0
46 17 15 40 -11 8 -20 18 -20 21 0 8 57 39 71 39 13 0 69 61 69 76 0 8 -4 14
-8 14 -15 0 -62 -25 -62 -32 0 -5 -20 -8 -45 -8 -25 0 -45 5 -45 10 0 6 9 10
20 10 11 0 20 4 20 9 0 5 11 12 25 15 14 4 25 11 25 16 0 6 6 10 13 10 17 1
99 87 132 140 15 25 32 47 36 50 5 4 12 21 16 40 l6 35 -60 -63 c-33 -34 -66
-62 -72 -62 -7 0 -22 -9 -34 -20 -12 -12 -32 -23 -44 -26 -13 -4 -23 -10 -23
-15 0 -5 -9 -9 -20 -9 -11 0 -20 -3 -20 -7 0 -14 -48 -31 -62 -22 -10 7 -10 9
2 9 8 0 32 16 52 35 20 19 40 35 43 35 12 0 205 197 205 209 0 6 4 11 8 11 5
0 17 16 28 35 10 19 22 35 26 35 5 0 8 9 8 20 0 11 4 20 9 20 5 0 12 14 16 30
4 17 11 30 16 30 5 0 9 5 9 10 0 18 -19 10 -25 -11z"/>
<path d="M1122 1500 c-10 -8 -32 -48 -32 -60 0 -16 37 -12 44 5 4 11 21 15 66
15 l60 0 0 -193 c0 -154 -3 -197 -15 -213 -8 -10 -15 -21 -15 -24 0 -3 32 -6
70 -7 69 -2 81 2 59 24 -7 7 -11 64 -10 166 1 97 -2 158 -9 162 -14 8 -13 35
3 68 8 19 20 27 37 27 40 0 70 -11 70 -26 0 -8 7 -14 15 -14 8 0 15 7 15 15 0
8 5 15 10 15 6 0 10 9 10 19 0 11 6 21 13 24 6 2 -77 4 -186 3 -109 0 -202 -3
-205 -6z"/>
<path d="M1232 993 l-633 -3 3 -23 3 -22 675 0 675 0 3 21 c3 23 -23 36 -68
31 -14 -1 -310 -3 -658 -4z"/>
<path d="M605 810 c0 -107 1 -110 23 -110 20 0 22 5 22 50 l0 50 51 0 51 0 -4
-50 c-2 -42 0 -50 15 -50 15 0 17 12 17 110 0 102 -1 110 -19 110 -11 0 -23
-4 -26 -10 -3 -5 -1 -10 4 -10 6 0 11 -15 11 -34 0 -38 -12 -46 -66 -46 l-34
0 0 50 c0 45 -2 50 -23 50 -22 0 -22 -2 -22 -110z"/>
<path d="M805 910 c-3 -5 -1 -10 4 -10 16 0 15 -187 -1 -193 -7 -3 17 -6 53
-6 73 -1 114 17 92 40 -10 10 -13 10 -13 1 0 -17 -58 -15 -76 2 -8 8 -14 24
-14 35 0 17 6 21 35 21 25 0 35 4 35 15 0 11 -7 14 -25 9 -24 -6 -25 -4 -25
35 0 34 3 41 19 41 11 0 21 -5 23 -12 5 -15 28 -1 28 18 0 11 -15 14 -64 14
-36 0 -68 -4 -71 -10z"/>
<path d="M970 810 l0 -110 25 0 c23 0 25 3 25 50 0 28 3 50 6 50 8 0 34 -27
34 -36 0 -4 12 -21 27 -36 23 -24 34 -28 82 -28 l56 0 0 110 c0 107 -1 110
-22 110 -22 0 -23 -3 -23 -105 0 -100 -1 -105 -21 -105 -19 0 -49 21 -49 35 0
4 -7 13 -15 21 -8 9 -15 19 -15 24 0 5 7 15 15 24 43 42 -5 106 -80 106 l-45
0 0 -110z m93 32 c-8 -31 -43 -30 -43 2 0 13 3 31 6 40 10 25 45 -14 37 -42z"/>
<path d="M1256 904 c-9 -25 -8 -26 24 -19 l30 7 0 -96 c0 -93 1 -96 23 -96 22
0 23 1 19 100 -4 96 -3 100 16 100 12 0 24 -5 27 -10 5 -8 11 -7 21 1 28 23
13 29 -70 29 -67 0 -85 -3 -90 -16z"/>
<path d="M1495 900 c4 -11 -1 -34 -9 -52 -9 -17 -16 -39 -16 -49 0 -9 -3 -19
-7 -21 -5 -1 -16 -20 -25 -40 l-18 -38 25 0 c20 0 24 5 27 38 3 34 6 37 35 40
28 3 33 0 38 -25 11 -49 14 -53 35 -53 24 0 25 15 5 54 -8 15 -15 37 -15 47 0
11 -4 19 -9 19 -4 0 -11 16 -14 35 -6 36 -27 65 -47 65 -7 0 -9 -8 -5 -20z
m25 -85 c0 -8 -4 -15 -10 -15 -5 0 -10 7 -10 15 0 8 5 15 10 15 6 0 10 -7 10
-15z"/>
<path d="M1665 907 c-29 -18 -45 -34 -45 -46 0 -6 -4 -11 -10 -11 -5 0 -10
-17 -10 -39 0 -33 6 -44 41 -75 42 -36 74 -44 126 -30 17 5 22 15 25 55 3 44
1 49 -17 49 -18 0 -20 -5 -17 -40 4 -36 2 -40 -19 -41 -67 -3 -88 12 -96 70
-5 33 -1 43 24 70 34 35 75 41 101 15 20 -20 30 -1 12 21 -15 18 -87 19 -115
2z"/>
<path d="M1810 910 c0 -5 4 -10 9 -10 12 0 21 -109 12 -157 l-8 -43 53 0 c67
0 84 7 84 34 0 12 -3 16 -8 10 -7 -11 -33 -18 -58 -15 -7 0 -14 9 -17 19 -2 9
-8 25 -12 35 -6 14 -1 17 34 17 31 0 41 4 41 16 0 12 -6 15 -24 10 -51 -13
-72 18 -40 59 13 17 17 18 35 6 23 -14 47 -1 35 18 -9 14 -136 15 -136 1z"/>
<path d="M990 652 c0 -5 -9 -12 -21 -15 -11 -3 -23 -15 -26 -26 -3 -12 -9 -21
-14 -21 -5 0 -9 -16 -9 -36 0 -30 8 -44 41 -75 52 -49 104 -54 147 -14 22 21
24 25 9 25 -10 0 -25 -7 -34 -15 -11 -11 -25 -14 -51 -9 -50 10 -64 27 -65 83
-2 43 2 53 28 75 36 31 70 33 87 6 17 -27 30 -25 26 3 -3 19 -10 22 -60 25
-32 2 -58 -1 -58 -6z"/>
<path d="M1135 550 l0 -110 63 0 c48 0 62 3 62 15 0 8 5 15 10 15 6 0 10 5 10
10 0 15 -21 12 -41 -6 -11 -10 -25 -13 -39 -9 -21 7 -22 12 -18 101 l3 94 -25
0 -25 0 0 -110z"/>
<path d="M1288 648 c7 -7 12 -43 12 -93 0 -93 15 -115 75 -115 58 0 75 26 75
115 0 43 4 75 10 75 6 0 10 7 10 15 0 9 -9 15 -25 15 -25 0 -25 0 -24 -91 1
-97 -4 -109 -48 -109 -14 0 -23 6 -23 15 0 8 -4 15 -10 15 -6 0 -10 26 -10 59
0 33 5 63 10 66 6 3 10 15 10 26 0 15 -7 19 -37 19 -29 0 -34 -3 -25 -12z"/>
<path d="M1491 600 c4 -34 5 -69 4 -78 -2 -9 -6 -32 -9 -49 l-5 -33 47 1 c52
1 105 26 110 53 2 10 -7 30 -21 44 -19 21 -24 34 -20 60 l5 32 179 0 c113 0
179 4 179 10 0 14 -343 13 -357 -1 -7 -7 -15 -6 -26 5 -9 9 -33 16 -54 16
l-39 0 7 -60z m79 5 c0 -16 -6 -25 -15 -25 -9 0 -15 9 -15 25 0 16 6 25 15 25
9 0 15 -9 15 -25z m13 -86 c14 -22 2 -49 -23 -49 -16 0 -20 6 -20 36 0 28 4
35 16 32 9 -2 21 -10 27 -19z"/>
<path d="M614 639 c-3 -5 63 -9 162 -9 92 0 165 2 163 4 -10 8 -319 14 -325 5z"/>
<path d="M670 600 c0 -5 12 -13 28 -16 15 -4 34 -15 43 -26 13 -14 31 -18 88
-18 69 0 71 1 71 25 0 14 5 25 10 25 6 0 10 5 10 10 0 6 -48 10 -125 10 -75 0
-125 -4 -125 -10z"/>
<path d="M1622 575 l-1 -35 97 0 c92 0 122 8 122 32 0 4 -30 9 -67 11 -63 3
-61 3 22 5 50 1 97 7 105 12 10 7 -33 10 -131 10 l-146 0 -1 -35z"/>
</g>
</svg>
